<svg width="64" height="64" viewBox="0 0 64 64" fill="none" xmlns="http://www.w3.org/2000/svg">
<g clip-path="url(#clip0_23_6)">
<path d="M46.224 31.768C46.928 31.858 47.468 32.324 48.016 32.908C51.774 36.906 53.944 42.28 53.98 47.818C54.004 51.548 50.16 54.266 46.21 55.72C39.828 58.068 32.776 58.426 25.936 57.592C21.434 57.044 16.838 56.1 13.11 53.276C11.414 51.992 10.006 50.106 10.02 47.82C10.056 42.178 12.292 36.734 16.17 32.71C17.156 31.686 19.01 31.558 19.678 32.98C20.084 33.844 19.716 34.784 18.97 35.564C15.91 38.8 14.102 43.202 14.02 47.622C13.988 49.282 15.708 50.38 17.32 51.18C21.478 53.244 26.276 53.85 31.014 53.946C36.182 54.05 41.474 53.538 46.128 51.44C47.45 50.844 48.81 50.15 49.634 48.932C50.086 48.266 49.992 47.318 49.92 46.45C49.572 42.238 47.664 38.18 44.644 35.174C44.644 35.174 44.182 34.634 44.088 34.11C43.876 32.928 44.934 31.714 46.224 31.768ZM32.09 6C37.206 6.048 42.184 9.12 44.494 13.696C46.416 17.504 46.458 22.206 44.606 26.05C41.58 32.328 33.476 35.752 26.636 32.906C22.172 31.048 18.82 26.734 18.148 21.94C17.534 17.556 19.146 12.92 22.352 9.864C24.896 7.438 28.34 6.034 31.91 6C31.97 6 32.03 6 32.09 6ZM31.936 9.996C27.374 10.04 23.128 13.506 22.212 17.974C21.544 21.232 22.636 24.804 25.022 27.134C27.78 29.828 32.156 30.72 35.774 29.24C39.996 27.512 42.678 22.614 41.812 18.096C40.962 13.666 36.816 10.1 32.194 9.998C32.108 9.996 32.022 9.996 31.936 9.996Z" fill="black"/>
</g>
<defs>
<clipPath id="clip0_23_6">
<rect width="64" height="64" fill="white"/>
</clipPath>
</defs>
</svg>
