<svg width="64" height="64" viewBox="0 0 64 64" fill="none" xmlns="http://www.w3.org/2000/svg">
<rect width="64" height="64" rx="32" fill="black"/>
<g clip-path="url(#clip0_30_159)">
<path d="M49.1018 43.7308C48.4609 45.1981 47.7021 46.5488 46.8231 47.7905C45.625 49.4835 44.6439 50.6553 43.8879 51.3061C42.7157 52.3742 41.4601 52.9212 40.1153 52.9523C39.1499 52.9523 37.9859 52.6802 36.6305 52.1279C35.271 51.5783 34.0215 51.3061 32.8791 51.3061C31.6808 51.3061 30.3958 51.5783 29.0213 52.1279C27.6447 52.6802 26.5357 52.9679 25.6878 52.9964C24.3983 53.0508 23.113 52.4882 21.83 51.3061C21.0111 50.5982 19.9869 49.3851 18.7599 47.6662C17.4435 45.8306 16.3612 43.7022 15.5133 41.2757C14.6052 38.6547 14.15 36.1166 14.15 33.6594C14.15 30.8447 14.7638 28.417 15.9931 26.3827C16.9593 24.7486 18.2446 23.4596 19.8532 22.5134C21.4619 21.5671 23.2001 21.0849 25.0719 21.054C26.0961 21.054 27.4393 21.368 29.1084 21.985C30.7728 22.6041 31.8415 22.918 32.31 22.918C32.6603 22.918 33.8476 22.5509 35.8602 21.8191C37.7635 21.1404 39.3698 20.8593 40.6856 20.97C44.2514 21.2552 46.9304 22.6482 48.712 25.1577C45.523 27.0726 43.9455 29.7545 43.9767 33.1951C44.0055 35.8749 44.9866 38.1049 46.9146 39.8756C47.7885 40.6976 48.7643 41.3326 49.85 41.7837C49.6146 42.4605 49.366 43.1086 49.1018 43.7308ZM40.9238 11.8402C40.9238 13.9407 40.1493 15.9019 38.6058 17.7172C36.7431 19.8752 34.49 21.1222 32.0469 20.9254C32.0158 20.6735 31.9977 20.4082 31.9977 20.1295C31.9977 18.1131 32.8835 15.9551 34.4566 14.1906C35.242 13.2972 36.2408 12.5544 37.452 11.9618C38.6608 11.3781 39.804 11.0553 40.8792 11C40.9105 11.2808 40.9238 11.5616 40.9238 11.8402Z" fill="white"/>
</g>
<defs>
<clipPath id="clip0_30_159">
<rect width="42" height="42" fill="white" transform="translate(11 11)"/>
</clipPath>
</defs>
</svg>
