<svg width="64" height="64" viewBox="0 0 64 64" fill="none" xmlns="http://www.w3.org/2000/svg">
<g clip-path="url(#clip0_23_16)">
<path d="M14 54C12.9391 54 11.9218 53.5785 11.1716 52.8284C10.4215 52.0782 10 51.0609 10 50V18H22V50C22 51.0609 21.5785 52.0782 20.8284 52.8284C20.0782 53.5785 19.0609 54 18 54H14Z" stroke="black" stroke-width="4" stroke-linecap="round" stroke-linejoin="round"/>
<path d="M10 30C10 28.9391 10.4215 27.9218 11.1716 27.1716C11.9218 26.4215 12.9391 26 14 26H18C19.0609 26 20.0782 26.4215 20.8284 27.1716C21.5785 27.9218 22 28.9391 22 30" stroke="black" stroke-width="4" stroke-linecap="round" stroke-linejoin="round"/>
<path d="M30 18H42V26" stroke="black" stroke-width="4" stroke-linecap="round" stroke-linejoin="round"/>
<path d="M48 26V42" stroke="black" stroke-width="4" stroke-linecap="round" stroke-linejoin="round"/>
<path d="M12 18V11.9995C12.0001 11.4692 12.2109 10.9606 12.586 10.5856C12.961 10.2106 13.4697 10 14 10H18C18.5303 10 19.039 10.2106 19.414 10.5856C19.7891 10.9606 19.9999 11.4692 20 11.9995V18" stroke="black" stroke-width="4" stroke-linecap="round" stroke-linejoin="round"/>
<path d="M32 17.9995V12C32 11.4696 32.2107 10.9609 32.5858 10.5858C32.9609 10.2107 33.4696 10 34 10H38C38.5303 10 39.039 10.2106 39.414 10.5856C39.7891 10.9606 39.9999 11.4692 40 11.9995V18" stroke="black" stroke-width="4" stroke-linecap="round" stroke-linejoin="round"/>
<path d="M30 26H52C52.5304 26 53.0391 26.2108 53.4142 26.5858C53.7893 26.9609 54 27.4696 54 28V52C54 52.5304 53.7893 53.0391 53.4142 53.4142C53.0391 53.7893 52.5304 54 52 54H32C31.4696 54 30.9609 53.7893 30.5858 53.4142C30.2107 53.0391 30 52.5304 30 52V17.9995" stroke="black" stroke-width="4" stroke-linecap="round" stroke-linejoin="round"/>
</g>
<defs>
<clipPath id="clip0_23_16">
<rect width="64" height="64" fill="white"/>
</clipPath>
</defs>
</svg>
