<svg width="64" height="64" viewBox="0 0 64 64" fill="none" xmlns="http://www.w3.org/2000/svg">
<rect width="64" height="64" rx="32" fill="white"/>
<path fill-rule="evenodd" clip-rule="evenodd" d="M51.32 32.4574C51.32 31.0303 51.1919 29.6581 50.9541 28.3409H32V36.1256H42.8309C42.3644 38.6412 40.9465 40.7727 38.815 42.1997V47.2493H45.3191C49.1246 43.7456 51.32 38.5865 51.32 32.4574Z" fill="#4285F4"/>
<path fill-rule="evenodd" clip-rule="evenodd" d="M32 52.1246C37.4338 52.1246 41.9892 50.3225 45.3191 47.2489L38.815 42.1993C37.0129 43.4068 34.7076 44.1203 32 44.1203C26.7583 44.1203 22.3217 40.5802 20.7391 35.8234H14.0155V41.0377C17.327 47.6149 24.1329 52.1246 32 52.1246Z" fill="#34A853"/>
<path fill-rule="evenodd" clip-rule="evenodd" d="M20.7392 35.8239C20.3367 34.6164 20.108 33.3265 20.108 32.0002C20.108 30.6737 20.3367 29.3839 20.7392 28.1764V22.9622H14.0156C12.6526 25.679 11.875 28.7527 11.875 32.0002C11.875 35.2475 12.6526 38.3212 14.0156 41.0381L20.7392 35.8239Z" fill="#FBBC05"/>
<path fill-rule="evenodd" clip-rule="evenodd" d="M32 19.8793C34.9547 19.8793 37.6075 20.8947 39.6932 22.8889L45.4654 17.1167C41.9801 13.8692 37.4245 11.875 32 11.875C24.1329 11.875 17.327 16.3848 14.0155 22.962L20.7391 28.1762C22.3217 23.4194 26.7583 19.8793 32 19.8793Z" fill="#EA4335"/>
</svg>
