<svg width="64" height="64" viewBox="0 0 64 64" fill="none" xmlns="http://www.w3.org/2000/svg">
<path d="M58.5999 9.51111H55.4888V6.4C55.4888 5.62222 54.8666 5 54.0888 5C53.3111 5 52.6888 5.62222 52.6888 6.4V9.51111H49.5777C48.8 9.51111 48.1777 10.1333 48.1777 10.9111C48.1777 11.6889 48.8 12.3111 49.5777 12.3111H52.6888V15.4222C52.6888 16.2 53.3111 16.8222 54.0888 16.8222C54.8666 16.8222 55.4888 16.2 55.4888 15.4222V12.28H58.5999C59.3777 12.28 59.9999 11.6578 59.9999 10.88C59.9999 10.1022 59.3777 9.48 58.5999 9.48V9.51111Z" fill="black"/>
<path d="M45.6266 32.5024C50.1688 28.9557 50.9777 22.3913 47.4311 17.849C45.5022 15.3602 42.5466 13.8979 39.4044 13.8357C36.8533 13.8357 34.3955 14.8002 32.5289 16.5424C29.2311 10.4135 21.6089 8.12684 15.48 11.4246C9.35111 14.7224 7.06444 22.3446 10.3622 28.4579C11.3733 30.3246 12.8355 31.9268 14.6244 33.0779C8.46444 34.8824 4 40.0468 4 46.1446V58.589C4 59.3668 4.62222 59.989 5.4 59.989H37.88C38.6577 59.989 39.28 59.3668 39.28 58.589V56.069H52.5644C53.3422 56.069 53.9644 55.4468 53.9644 54.669V43.8579C53.9022 38.6779 50.5422 34.1201 45.6266 32.5024ZM39.4044 16.5579C43.62 16.4802 47.0888 19.809 47.1822 24.0246C47.26 28.2401 43.9311 31.709 39.7155 31.8024C36.9311 31.8646 34.3333 30.3868 32.9489 27.9757L33.0266 27.7579C33.1511 27.4935 33.26 27.229 33.3689 26.9646C33.4777 26.7002 33.5711 26.3424 33.6644 26.0313C33.7577 25.7202 33.7422 25.7824 33.7733 25.6424C34.0377 24.6468 34.1777 23.6357 34.1777 22.609C34.1777 21.9402 34.1777 21.3024 34.0844 20.649C34.0222 20.2446 33.9444 19.8402 33.8355 19.4513C33.8355 19.4513 33.8355 19.3268 33.8355 19.2802C35.22 17.569 37.2889 16.5735 39.4822 16.5579H39.4044ZM31.0822 34.0579C30.2733 33.6846 29.4489 33.3735 28.5933 33.1401C29.6511 32.4401 30.6 31.5846 31.3933 30.589C32 31.3824 32.7311 32.0668 33.5555 32.6424C32.7155 33.0157 31.9377 33.5135 31.2377 34.089L31.0822 34.0579ZM11.7778 22.609C11.7622 17.2113 16.1489 12.8246 21.5466 12.8091C25.7311 12.8091 29.4644 15.4535 30.8177 19.4202C31.1911 20.4468 31.3777 21.5202 31.3777 22.609C31.3622 23.6668 31.1911 24.7246 30.8489 25.7202C29.62 29.3601 26.0889 32.3779 22.1066 32.3779H20.9555C15.8067 32.0513 11.7778 27.7735 11.7778 22.609ZM36.48 57.2512H6.8V46.1446C6.8 43.8735 7.64 41.6646 9.07111 39.9068C10.58 38.0557 12.6644 36.7179 14.9355 35.9713C16.32 35.5201 17.7822 35.3335 19.2289 35.2713C20.7222 35.209 22.2622 35.1157 23.7555 35.2401C24.5333 35.3024 25.3111 35.4579 26.0733 35.6135C26.8822 35.7846 27.6755 35.9868 28.4533 36.2201C28.8422 36.329 29.2155 36.469 29.6044 36.5935C30.7244 36.9824 31.72 37.5579 32.6689 38.2735C33.26 38.7246 33.6955 39.2535 34.2089 39.7668C34.6289 40.1868 34.9555 40.809 35.2044 41.3379C35.6089 42.1624 35.7955 43.0646 35.9977 43.9512C36.34 45.4912 36.4955 47.0468 36.4955 48.6335C36.4955 49.6912 36.4955 50.749 36.4955 51.8068C36.4955 53.5957 36.4955 55.369 36.4955 57.1579C36.4955 57.2046 36.4955 57.2668 36.4955 57.3135L36.48 57.2512ZM51.1644 53.269H39.28V46.1446C39.28 46.1446 39.28 46.0512 39.28 46.0046C39.28 45.9579 39.28 45.7246 39.28 45.569C39.1244 43.1268 38.3311 40.7624 36.9933 38.7246C36.9155 38.6157 36.8222 38.5068 36.7444 38.3824C36.4644 38.009 36.1689 37.6357 35.8577 37.2935L35.78 37.2001C35.2355 36.609 34.6133 36.0646 33.9444 35.6135C35.1733 34.8824 36.5733 34.5246 38.0044 34.6024H41.4577C46.6844 34.4935 51.0244 38.6312 51.1644 43.8579V53.269Z" fill="black"/>
</svg>
