<svg width="64" height="64" viewBox="0 0 64 64" fill="none" xmlns="http://www.w3.org/2000/svg">
<path d="M16.9494 24.4133H19.4513C23.0143 24.4133 26.2521 25.8697 28.5981 28.2157C30.9443 30.5619 32.4006 33.7997 32.4006 37.3626V49.6952C32.4006 52.2406 31.3605 54.5535 29.685 56.229C28.0095 57.9045 25.6965 58.9446 23.1513 58.9446H13.2493C10.7041 58.9446 8.39115 57.9045 6.71564 56.229C5.04013 54.5535 4 52.2406 4 49.6952V37.3626C4 33.7997 5.45636 30.5619 7.80251 28.2157C10.1485 25.8697 13.3863 24.4133 16.9494 24.4133ZM19.4513 28.1131H16.9494C14.4076 28.1131 12.0954 29.1544 10.4183 30.8315C8.74102 32.5087 7.69978 34.8208 7.69978 37.3626V49.6952C7.69978 51.2195 8.3248 52.6067 9.33139 53.6132C10.338 54.6198 11.7251 55.2448 13.2493 55.2448H23.1513C24.6755 55.2448 26.0627 54.6198 27.0692 53.6132C28.0758 52.6067 28.7009 51.2195 28.7009 49.6952V37.3626C28.7009 34.8208 27.6596 32.5087 25.9824 30.8315C24.3053 29.1544 21.993 28.1131 19.4513 28.1131Z" fill="black"/>
<path d="M16.9242 15.1135H19.941C21.469 15.1135 22.8569 15.7374 23.8618 16.7423C24.8668 17.7473 25.4907 19.1352 25.4907 20.6632V26.2629C25.4907 27.2846 24.6624 28.1128 23.6408 28.1128H13.2244C12.2028 28.1128 11.3745 27.2846 11.3745 26.2629V20.6632C11.3745 19.1353 11.9984 17.7474 13.0033 16.7423C14.0084 15.7374 15.3963 15.1135 16.9242 15.1135ZM19.941 18.8133H16.9242C16.4173 18.8133 15.9551 19.0221 15.619 19.358C15.2831 19.6941 15.0743 20.1563 15.0743 20.6632V24.4131H21.7909V20.6632C21.7909 20.1563 21.5821 19.6941 21.246 19.358C20.91 19.022 20.4479 18.8133 19.941 18.8133Z" fill="black"/>
<path d="M41.2945 23.7923L44.4279 22.1943C44.4734 22.1711 44.5195 22.1501 44.5659 22.131C45.3211 21.7895 46.1605 21.7682 46.9095 22.0192C47.6811 22.2778 48.3604 22.8234 48.7586 23.604C48.7803 23.6467 48.8002 23.6897 48.8183 23.7333L59.6753 46.5834C60.0454 47.362 60.0909 48.2267 59.8536 48.9953C59.6066 49.796 59.0626 50.4919 58.2641 50.899L56.1749 51.9645C55.3773 52.3711 54.4936 52.4045 53.7031 52.1351C52.938 51.8743 52.2609 51.3223 51.849 50.549L39.9148 28.1642L39.9122 28.1656L39.8963 28.1346L39.8934 28.1361C39.4935 27.3521 39.4477 26.4791 39.6908 25.7023C39.9343 24.9229 40.4745 24.2353 41.2445 23.825L41.2974 23.798L41.2945 23.7923ZM45.6708 25.7104L43.4 26.8686L54.9111 48.4589L56.1736 47.8151L45.6708 25.7104Z" fill="black"/>
<path d="M19.7929 33.9913L20.615 35.3135C22.429 38.2261 24.2624 41.1703 24.2624 44.2604C24.2624 45.9542 23.5826 47.4051 22.5438 48.4625C21.4323 49.5942 19.8902 50.2625 18.3247 50.2791L18.2686 50.2793V50.2867C16.7551 50.2867 15.2395 49.679 14.1019 48.6431C12.9451 47.5895 12.1645 46.0883 12.1457 44.319L12.1456 44.2604H12.1382C12.1382 41.1641 13.9547 38.2535 15.7822 35.3252C16.177 34.6928 16.5752 34.0548 16.628 33.9678C17.1547 33.0978 18.2871 32.8196 19.157 33.3463C19.429 33.511 19.6431 33.7348 19.7929 33.9913ZM20.5626 44.2604C20.5626 42.5394 19.464 40.5031 18.2014 38.4329C16.9315 40.5097 15.838 42.5318 15.838 44.2604H15.8307L15.8309 44.2902C15.8377 44.9387 16.1399 45.5038 16.5877 45.9117C17.0549 46.3371 17.6666 46.5869 18.2686 46.5869V46.5941L18.2959 46.5939C18.8821 46.5877 19.4737 46.3233 19.9135 45.8756C20.3058 45.4763 20.5626 44.9195 20.5626 44.2604Z" fill="black"/>
<path d="M36.8702 16.1475L41.1305 14.0106C42.4933 13.3271 44.01 13.2628 45.3554 13.7093C46.7036 14.1568 47.883 15.1174 48.5678 16.4826L50.3053 19.947C50.6846 20.703 50.7206 21.5442 50.4733 22.2899C50.2249 23.0377 49.6913 23.6929 48.9322 24.0736L40.1053 28.5009C39.3508 28.877 38.5125 28.9122 37.7689 28.6656C37.0207 28.4173 36.3659 27.8835 35.9852 27.1246L34.3259 23.8161C34.2577 23.7072 34.202 23.5926 34.1588 23.4746C33.5595 22.1609 33.5199 20.72 33.9464 19.4353C34.373 18.1499 35.2661 17.018 36.5317 16.3219C36.6395 16.2514 36.7529 16.1933 36.8702 16.1475ZM42.7781 17.3056L38.3673 19.5182C37.9138 19.7456 37.5938 20.1399 37.4439 20.5916C37.2933 21.0452 37.3138 21.5544 37.5412 22.0099L39.0063 24.9307L46.7384 21.0525L45.2728 18.1303C45.0454 17.6768 44.651 17.3568 44.1991 17.2068C43.7448 17.0561 43.2343 17.0768 42.7781 17.3056Z" fill="black"/>
<path d="M34.5661 6.50705C35.7457 5.91533 37.0583 5.85947 38.2227 6.24597C39.3895 6.63334 40.4106 7.46493 41.0033 8.64701L43.4525 13.5297C43.8317 14.2857 43.8677 15.1269 43.6204 15.8727C43.3721 16.6204 42.8384 17.2756 42.0794 17.6563L39.1576 19.1218C39.0318 19.2005 38.8985 19.2625 38.7609 19.3082C38.0699 19.5836 37.3262 19.5894 36.6588 19.368C35.9915 19.1466 35.3985 18.6981 35.008 18.065C34.922 17.9426 34.8526 17.812 34.7997 17.6764L32.426 12.9442C31.8344 11.7648 31.7785 10.4521 32.165 9.28781C32.5522 8.12102 33.384 7.1 34.5661 6.50705ZM36.214 9.80195C35.9435 9.93761 35.7522 10.1737 35.6626 10.4441C35.5719 10.7173 35.5841 11.0235 35.721 11.2965L37.8963 15.6331L39.8855 14.6352L37.7083 10.2946C37.5728 10.0244 37.3368 9.83328 37.0664 9.7435C36.7932 9.65285 36.4869 9.66506 36.214 9.80195Z" fill="black"/>
</svg>
