<svg width="600" height="152" viewBox="0 0 600 152" fill="none" xmlns="http://www.w3.org/2000/svg">
<path d="M94.0491 11.5644L59.1291 116.864C58.6491 118.424 57.6291 119.744 56.0691 120.824C54.6291 121.904 53.0691 122.444 51.3891 122.444H44.0091C42.3291 122.444 40.7691 121.904 39.3291 120.824C38.0091 119.744 37.0491 118.424 36.4491 116.864L1.52906 11.5644C0.569063 8.92445 0.929063 6.46446 2.60906 4.18446C4.16906 1.90445 6.38906 0.764447 9.26906 0.764447H14.4891C18.4491 0.764447 21.0891 2.62445 22.4091 6.34445L46.7091 80.5045C47.4291 81.3445 48.0891 81.3445 48.6891 80.5045C51.2091 72.7045 53.7891 64.7245 56.4291 56.5645C59.1891 48.2845 61.7691 40.5445 64.1691 33.3445C66.5691 26.0244 68.5491 19.9645 70.1091 15.1645L72.9891 6.34445C73.5891 4.66445 74.6091 3.34445 76.0491 2.38445C77.6091 1.30445 79.2291 0.764447 80.9091 0.764447H86.1291C89.0091 0.764447 91.2291 1.90445 92.7891 4.18446C94.4691 6.34445 94.8891 8.80445 94.0491 11.5644ZM161.247 102.284C161.247 107.924 159.267 112.724 155.307 116.684C151.467 120.524 146.787 122.444 141.267 122.444H116.247C110.727 122.444 105.987 120.524 102.027 116.684C98.0667 112.724 96.0867 107.924 96.0867 102.284V82.6645C96.0867 78.9445 96.9867 75.6445 98.7867 72.7645C100.707 69.7645 103.167 67.3645 106.167 65.5645C109.167 63.7645 112.527 62.8645 116.247 62.8645H137.487C138.087 62.8645 138.627 62.6245 139.107 62.1445C139.707 61.6645 140.007 61.0645 140.007 60.3445V53.1445C140.007 52.4245 139.707 51.8245 139.107 51.3445C138.627 50.8645 138.087 50.6245 137.487 50.6245H116.247C113.967 50.6245 111.987 49.8445 110.307 48.2845C108.747 46.7245 107.967 44.8045 107.967 42.5245V37.6645C107.967 35.2645 108.747 33.2845 110.307 31.7245C111.987 30.0445 113.967 29.2045 116.247 29.2045H141.267C144.987 29.2045 148.347 30.1045 151.347 31.9045C154.347 33.7045 156.747 36.1645 158.547 39.2845C160.347 42.2845 161.247 45.6445 161.247 49.3645V102.284ZM140.007 98.8645V86.4445C140.007 85.8445 139.707 85.3045 139.107 84.8245C138.627 84.3445 138.087 84.1045 137.487 84.1045H120.027C119.427 84.1045 118.827 84.3445 118.227 84.8245C117.747 85.3045 117.507 85.8445 117.507 86.4445V98.8645C117.507 99.4645 117.747 100.004 118.227 100.484C118.827 100.964 119.427 101.204 120.027 101.204H137.487C138.087 101.204 138.627 100.964 139.107 100.484C139.707 100.004 140.007 99.4645 140.007 98.8645ZM241.051 102.284C241.051 107.924 239.071 112.724 235.111 116.684C231.271 120.524 226.591 122.444 221.071 122.444H199.831C199.231 122.444 198.631 122.684 198.031 123.164C197.551 123.644 197.311 124.184 197.311 124.784V142.964C197.311 145.244 196.531 147.164 194.971 148.724C193.411 150.404 191.491 151.244 189.211 151.244H184.171C181.891 151.244 179.911 150.404 178.231 148.724C176.671 147.164 175.891 145.244 175.891 142.964V49.3645C175.891 45.6445 176.791 42.2845 178.591 39.2845C180.511 36.1645 182.971 33.7045 185.971 31.9045C188.971 30.1045 192.331 29.2045 196.051 29.2045H221.071C224.791 29.2045 228.151 30.1045 231.151 31.9045C234.151 33.7045 236.551 36.1645 238.351 39.2845C240.151 42.2845 241.051 45.6445 241.051 49.3645V102.284ZM219.811 98.8645V53.1445C219.811 52.4245 219.511 51.8245 218.911 51.3445C218.431 50.8645 217.891 50.6245 217.291 50.6245H199.831C199.231 50.6245 198.631 50.8645 198.031 51.3445C197.551 51.8245 197.311 52.4245 197.311 53.1445V98.8645C197.311 99.4645 197.551 100.004 198.031 100.484C198.631 100.964 199.231 101.204 199.831 101.204H217.291C217.891 101.204 218.431 100.964 218.911 100.484C219.511 100.004 219.811 99.4645 219.811 98.8645ZM320.856 68.9845C320.856 72.5845 319.956 75.9445 318.156 79.0645C316.356 82.0645 313.956 84.5245 310.956 86.4445C307.956 88.2445 304.596 89.1445 300.876 89.1445H279.636C279.036 89.1445 278.436 89.3845 277.836 89.8645C277.356 90.2245 277.116 90.7045 277.116 91.3045V98.8645C277.116 99.4645 277.356 100.004 277.836 100.484C278.436 100.964 279.036 101.204 279.636 101.204H300.876C303.156 101.204 305.076 101.984 306.636 103.544C308.316 105.104 309.156 107.084 309.156 109.484V114.164C309.156 116.444 308.316 118.424 306.636 120.104C305.076 121.664 303.156 122.444 300.876 122.444H275.856C270.336 122.444 265.596 120.524 261.636 116.684C257.676 112.724 255.696 107.924 255.696 102.284V49.3645C255.696 45.6445 256.596 42.2845 258.396 39.2845C260.316 36.2845 262.776 33.8845 265.776 32.0845C268.776 30.1645 272.136 29.2045 275.856 29.2045H300.876C304.596 29.2045 307.956 30.1645 310.956 32.0845C313.956 33.8845 316.356 36.2845 318.156 39.2845C319.956 42.2845 320.856 45.6445 320.856 49.3645V68.9845ZM299.616 65.3845V53.1445C299.616 52.4245 299.316 51.8245 298.716 51.3445C298.236 50.8645 297.696 50.6245 297.096 50.6245H279.636C279.036 50.6245 278.436 50.8645 277.836 51.3445C277.356 51.8245 277.116 52.4245 277.116 53.1445V65.3845C277.116 65.8645 277.356 66.3445 277.836 66.8245C278.436 67.3045 279.036 67.5445 279.636 67.5445H297.096C297.696 67.5445 298.236 67.3045 298.716 66.8245C299.316 66.3445 299.616 65.8645 299.616 65.3845ZM406.816 13.9044C406.816 16.1844 406.036 18.1644 404.476 19.8444C402.916 21.4044 400.936 22.1845 398.536 22.1845H379.636C378.076 22.1845 377.296 22.9645 377.296 24.5245V114.164C377.296 116.444 376.456 118.424 374.776 120.104C373.216 121.664 371.296 122.444 369.016 122.444H364.336C362.056 122.444 360.076 121.664 358.396 120.104C356.836 118.424 356.056 116.444 356.056 114.164V24.5245C356.056 22.9645 355.276 22.1845 353.716 22.1845H334.636C332.356 22.1845 330.376 21.4044 328.696 19.8444C327.136 18.1644 326.356 16.1844 326.356 13.9044V9.04445C326.356 6.64445 327.136 4.66445 328.696 3.10445C330.376 1.54445 332.356 0.764447 334.636 0.764447H398.536C400.936 0.764447 402.916 1.54445 404.476 3.10445C406.036 4.66445 406.816 6.64445 406.816 9.04445V13.9044ZM472.028 102.284C472.028 107.924 470.048 112.724 466.088 116.684C462.248 120.524 457.568 122.444 452.048 122.444H427.028C421.508 122.444 416.768 120.524 412.808 116.684C408.848 112.724 406.868 107.924 406.868 102.284V82.6645C406.868 78.9445 407.768 75.6445 409.568 72.7645C411.488 69.7645 413.948 67.3645 416.948 65.5645C419.948 63.7645 423.308 62.8645 427.028 62.8645H448.268C448.868 62.8645 449.408 62.6245 449.888 62.1445C450.488 61.6645 450.788 61.0645 450.788 60.3445V53.1445C450.788 52.4245 450.488 51.8245 449.888 51.3445C449.408 50.8645 448.868 50.6245 448.268 50.6245H427.028C424.748 50.6245 422.768 49.8445 421.088 48.2845C419.528 46.7245 418.748 44.8045 418.748 42.5245V37.6645C418.748 35.2645 419.528 33.2845 421.088 31.7245C422.768 30.0445 424.748 29.2045 427.028 29.2045H452.048C455.768 29.2045 459.128 30.1045 462.128 31.9045C465.128 33.7045 467.528 36.1645 469.328 39.2845C471.128 42.2845 472.028 45.6445 472.028 49.3645V102.284ZM450.788 98.8645V86.4445C450.788 85.8445 450.488 85.3045 449.888 84.8245C449.408 84.3445 448.868 84.1045 448.268 84.1045H430.808C430.208 84.1045 429.608 84.3445 429.008 84.8245C428.528 85.3045 428.288 85.8445 428.288 86.4445V98.8645C428.288 99.4645 428.528 100.004 429.008 100.484C429.608 100.964 430.208 101.204 430.808 101.204H448.268C448.868 101.204 449.408 100.964 449.888 100.484C450.488 100.004 450.788 99.4645 450.788 98.8645ZM519.433 114.164C519.433 116.444 518.593 118.424 516.913 120.104C515.353 121.664 513.433 122.444 511.153 122.444H506.653C501.133 122.444 496.393 120.524 492.433 116.684C488.473 112.724 486.493 107.924 486.493 102.284V9.04445C486.493 6.64445 487.273 4.66445 488.833 3.10445C490.513 1.54445 492.493 0.764447 494.773 0.764447H499.813C502.093 0.764447 504.013 1.54445 505.573 3.10445C507.253 4.66445 508.093 6.64445 508.093 9.04445V98.8645C508.093 100.424 508.813 101.204 510.253 101.204H511.153C513.433 101.204 515.353 101.984 516.913 103.544C518.593 105.104 519.433 107.084 519.433 109.484V114.164ZM598.046 117.404C596.726 120.764 594.266 122.444 590.666 122.444H584.006C581.606 122.444 579.506 121.544 577.706 119.744L556.646 96.5245C556.526 96.2845 556.226 96.2245 555.746 96.3445C555.386 96.4645 555.206 96.7645 555.206 97.2445V114.164C555.206 116.444 554.366 118.424 552.686 120.104C551.126 121.664 549.206 122.444 546.926 122.444H541.886C539.606 122.444 537.626 121.664 535.946 120.104C534.386 118.424 533.606 116.444 533.606 114.164V9.04445C533.606 6.64445 534.386 4.66445 535.946 3.10445C537.626 1.54445 539.606 0.764447 541.886 0.764447H546.926C549.206 0.764447 551.126 1.54445 552.686 3.10445C554.366 4.66445 555.206 6.64445 555.206 9.04445V54.5845C555.206 54.9445 555.386 55.2445 555.746 55.4845C556.226 55.6045 556.526 55.4845 556.646 55.1245L575.726 34.4245C577.286 32.6245 579.266 31.7245 581.666 31.7245H588.326C591.806 31.7245 594.326 33.4045 595.886 36.7645C596.486 38.2045 596.666 39.7645 596.426 41.4445C596.186 43.0045 595.526 44.3245 594.446 45.4045L568.346 74.2045C567.866 74.6845 567.626 75.2845 567.626 76.0045C567.626 76.6045 567.866 77.0845 568.346 77.4445L596.606 108.584C597.686 109.784 598.346 111.224 598.586 112.904C598.946 114.464 598.766 115.964 598.046 117.404Z" fill="url(#paint0_linear_3_45)"/>
<defs>
<linearGradient id="paint0_linear_3_45" x1="-20" y1="161.222" x2="620" y2="161.222" gradientUnits="userSpaceOnUse">
<stop stop-color="#FF3CAC"/>
<stop offset="0.489583" stop-color="#562B7C"/>
<stop offset="1" stop-color="#2B86C5"/>
</linearGradient>
</defs>
</svg>
