<svg width="647" height="492" viewBox="0 0 647 492" fill="none" xmlns="http://www.w3.org/2000/svg">
<path d="M322.223 458.893H385.844C393.718 458.893 406.009 454.883 406.009 439.625C406.009 417.838 406.009 417.838 406.009 55.5259C406.009 55.5259 376.423 61.5628 341.903 55.5259V133.935H252.333C244.459 133.935 238.076 140.318 238.076 148.193V364.382" stroke="url(#paint0_linear_3_46)" stroke-width="15" stroke-miterlimit="10" stroke-linecap="round" stroke-linejoin="round"/>
<path d="M352.121 55.4305C360.429 51.5135 362.285 41.9527 362.285 31.313V8H386.215V31.5076C386.215 42.0493 387.881 51.5435 396.079 55.5259" stroke="url(#paint1_linear_3_46)" stroke-width="15" stroke-miterlimit="10" stroke-linecap="round" stroke-linejoin="round"/>
<path d="M341.902 132.922C341.902 132.922 367.551 143.022 406.008 132.922" stroke="url(#paint2_linear_3_46)" stroke-width="15" stroke-miterlimit="10" stroke-linecap="round" stroke-linejoin="round"/>
<path d="M331.627 236.474L311.172 280.722H334.937L315.509 327.645" stroke="url(#paint3_linear_3_46)" stroke-width="15" stroke-miterlimit="10" stroke-linecap="round" stroke-linejoin="round"/>
<path d="M13.4306 472.165C-4.74283 419.161 23.4929 361.46 76.4967 343.286C98.3285 335.8 120.957 336.188 141.292 342.937" stroke="url(#paint4_linear_3_46)" stroke-width="15" stroke-miterlimit="10" stroke-linecap="round" stroke-linejoin="round"/>
<path d="M101.51 277.656C73.0903 267.77 52.6926 240.745 52.6926 208.956C52.6926 168.796 85.249 136.238 125.411 136.238C134.165 136.238 142.558 137.784 150.33 140.62" stroke="url(#paint5_linear_3_46)" stroke-width="15" stroke-miterlimit="10" stroke-linecap="round" stroke-linejoin="round"/>
<path d="M173.508 99.2706C182.209 68.8549 210.219 46.592 243.43 46.592C264.799 46.592 284.016 55.8093 297.32 70.4862" stroke="url(#paint6_linear_3_46)" stroke-width="15" stroke-miterlimit="10" stroke-linecap="round" stroke-linejoin="round"/>
<path d="M130.763 135.85C126.699 119.599 136.578 103.13 152.829 99.0655C162.834 96.563 172.922 99.3464 180.147 105.647" stroke="url(#paint7_linear_3_46)" stroke-width="15" stroke-miterlimit="10" stroke-linecap="round" stroke-linejoin="round"/>
<path d="M43.7261 315.184C38.7902 309.312 35.8044 301.742 35.7744 293.47C35.7052 274.713 50.8549 259.451 69.6121 259.382" stroke="url(#paint8_linear_3_46)" stroke-width="15" stroke-miterlimit="10" stroke-linecap="round" stroke-linejoin="round"/>
<path d="M171.484 421C188.747 398.133 219.67 388.447 247.733 399.268C281.67 412.355 298.573 450.474 285.487 484.409" stroke="url(#paint9_linear_3_46)" stroke-width="15" stroke-miterlimit="10" stroke-linecap="round" stroke-linejoin="round"/>
<path d="M120.491 434.304C126.602 418.454 144.407 410.559 160.257 416.671C170.015 420.434 176.758 428.629 179.074 438.071" stroke="url(#paint10_linear_3_46)" stroke-width="15" stroke-miterlimit="10" stroke-linecap="round" stroke-linejoin="round"/>
<path d="M634.821 453.912C644.118 432.122 638.341 405.959 619.032 390.284C595.683 371.329 561.389 374.891 542.434 398.239" stroke="url(#paint11_linear_3_46)" stroke-width="15" stroke-miterlimit="10" stroke-linecap="round" stroke-linejoin="round"/>
<path d="M604.297 349.837C622.694 334.047 624.806 306.334 609.016 287.939C599.147 276.441 584.621 271.304 570.622 272.923" stroke="url(#paint12_linear_3_46)" stroke-width="15" stroke-miterlimit="10" stroke-linecap="round" stroke-linejoin="round"/>
<path d="M591.343 273.682C609.955 226.121 586.488 172.476 538.927 153.864C509.201 142.231 477.099 147.035 452.659 163.887" stroke="url(#paint13_linear_3_46)" stroke-width="15" stroke-miterlimit="10" stroke-linecap="round" stroke-linejoin="round"/>
<defs>
<linearGradient id="paint0_linear_3_46" x1="322.042" y1="55.5259" x2="322.042" y2="458.893" gradientUnits="userSpaceOnUse">
<stop stop-color="#FF3CAC"/>
<stop offset="0.510417" stop-color="#562B7C"/>
<stop offset="1" stop-color="#2B86C5"/>
</linearGradient>
<linearGradient id="paint1_linear_3_46" x1="374.1" y1="8" x2="374.1" y2="55.5259" gradientUnits="userSpaceOnUse">
<stop stop-color="#FF3CAC"/>
<stop offset="0.510417" stop-color="#562B7C"/>
<stop offset="1" stop-color="#2B86C5"/>
</linearGradient>
<linearGradient id="paint2_linear_3_46" x1="373.955" y1="132.922" x2="373.955" y2="137.411" gradientUnits="userSpaceOnUse">
<stop stop-color="#FF3CAC"/>
<stop offset="0.510417" stop-color="#562B7C"/>
<stop offset="1" stop-color="#2B86C5"/>
</linearGradient>
<linearGradient id="paint3_linear_3_46" x1="323.054" y1="236.474" x2="323.054" y2="327.645" gradientUnits="userSpaceOnUse">
<stop stop-color="#FF3CAC"/>
<stop offset="0.510417" stop-color="#562B7C"/>
<stop offset="1" stop-color="#2B86C5"/>
</linearGradient>
<linearGradient id="paint4_linear_3_46" x1="74.6053" y1="337.773" x2="74.6053" y2="472.165" gradientUnits="userSpaceOnUse">
<stop stop-color="#FF3CAC"/>
<stop offset="0.510417" stop-color="#562B7C"/>
<stop offset="1" stop-color="#2B86C5"/>
</linearGradient>
<linearGradient id="paint5_linear_3_46" x1="101.512" y1="136.238" x2="101.512" y2="277.656" gradientUnits="userSpaceOnUse">
<stop stop-color="#FF3CAC"/>
<stop offset="0.510417" stop-color="#562B7C"/>
<stop offset="1" stop-color="#2B86C5"/>
</linearGradient>
<linearGradient id="paint6_linear_3_46" x1="235.414" y1="46.592" x2="235.414" y2="99.2706" gradientUnits="userSpaceOnUse">
<stop stop-color="#FF3CAC"/>
<stop offset="0.510417" stop-color="#562B7C"/>
<stop offset="1" stop-color="#2B86C5"/>
</linearGradient>
<linearGradient id="paint7_linear_3_46" x1="154.998" y1="98.152" x2="154.998" y2="135.85" gradientUnits="userSpaceOnUse">
<stop stop-color="#FF3CAC"/>
<stop offset="0.510417" stop-color="#562B7C"/>
<stop offset="1" stop-color="#2B86C5"/>
</linearGradient>
<linearGradient id="paint8_linear_3_46" x1="52.6931" y1="259.382" x2="52.6931" y2="315.184" gradientUnits="userSpaceOnUse">
<stop stop-color="#FF3CAC"/>
<stop offset="0.510417" stop-color="#562B7C"/>
<stop offset="1" stop-color="#2B86C5"/>
</linearGradient>
<linearGradient id="paint9_linear_3_46" x1="230.699" y1="394.841" x2="230.699" y2="484.409" gradientUnits="userSpaceOnUse">
<stop stop-color="#FF3CAC"/>
<stop offset="0.510417" stop-color="#562B7C"/>
<stop offset="1" stop-color="#2B86C5"/>
</linearGradient>
<linearGradient id="paint10_linear_3_46" x1="149.782" y1="414.603" x2="149.782" y2="438.071" gradientUnits="userSpaceOnUse">
<stop stop-color="#FF3CAC"/>
<stop offset="0.510417" stop-color="#562B7C"/>
<stop offset="1" stop-color="#2B86C5"/>
</linearGradient>
<linearGradient id="paint11_linear_3_46" x1="590.801" y1="378.105" x2="590.801" y2="453.912" gradientUnits="userSpaceOnUse">
<stop stop-color="#FF3CAC"/>
<stop offset="0.510417" stop-color="#562B7C"/>
<stop offset="1" stop-color="#2B86C5"/>
</linearGradient>
<linearGradient id="paint12_linear_3_46" x1="595.113" y1="272.632" x2="595.113" y2="349.837" gradientUnits="userSpaceOnUse">
<stop stop-color="#FF3CAC"/>
<stop offset="0.510417" stop-color="#562B7C"/>
<stop offset="1" stop-color="#2B86C5"/>
</linearGradient>
<linearGradient id="paint13_linear_3_46" x1="525.193" y1="147.48" x2="525.193" y2="273.682" gradientUnits="userSpaceOnUse">
<stop stop-color="#FF3CAC"/>
<stop offset="0.510417" stop-color="#562B7C"/>
<stop offset="1" stop-color="#2B86C5"/>
</linearGradient>
</defs>
</svg>
