<svg width="647" height="719" viewBox="0 0 647 719" fill="none" xmlns="http://www.w3.org/2000/svg">
<path d="M118.049 568.564L83.1291 673.864C82.6491 675.424 81.6291 676.744 80.0691 677.824C78.6291 678.904 77.0691 679.444 75.3891 679.444H68.0091C66.3291 679.444 64.7691 678.904 63.3291 677.824C62.0091 676.744 61.0491 675.424 60.4491 673.864L25.5291 568.564C24.5691 565.924 24.9291 563.464 26.6091 561.184C28.1691 558.904 30.3891 557.764 33.2691 557.764H38.4891C42.4491 557.764 45.0891 559.624 46.4091 563.344L70.7091 637.504C71.4291 638.344 72.0891 638.344 72.6891 637.504C75.2091 629.704 77.7891 621.724 80.4291 613.564C83.1891 605.284 85.7691 597.544 88.1691 590.344C90.5691 583.024 92.5491 576.964 94.1091 572.164L96.9891 563.344C97.5891 561.664 98.6091 560.344 100.049 559.384C101.609 558.304 103.229 557.764 104.909 557.764H110.129C113.009 557.764 115.229 558.904 116.789 561.184C118.469 563.344 118.889 565.804 118.049 568.564ZM185.247 659.284C185.247 664.924 183.267 669.724 179.307 673.684C175.467 677.524 170.787 679.444 165.267 679.444H140.247C134.727 679.444 129.987 677.524 126.027 673.684C122.067 669.724 120.087 664.924 120.087 659.284V639.664C120.087 635.944 120.987 632.644 122.787 629.764C124.707 626.764 127.167 624.364 130.167 622.564C133.167 620.764 136.527 619.864 140.247 619.864H161.487C162.087 619.864 162.627 619.624 163.107 619.144C163.707 618.664 164.007 618.064 164.007 617.344V610.144C164.007 609.424 163.707 608.824 163.107 608.344C162.627 607.864 162.087 607.624 161.487 607.624H140.247C137.967 607.624 135.987 606.844 134.307 605.284C132.747 603.724 131.967 601.804 131.967 599.524V594.664C131.967 592.264 132.747 590.284 134.307 588.724C135.987 587.044 137.967 586.204 140.247 586.204H165.267C168.987 586.204 172.347 587.104 175.347 588.904C178.347 590.704 180.747 593.164 182.547 596.284C184.347 599.284 185.247 602.644 185.247 606.364V659.284ZM164.007 655.864V643.444C164.007 642.844 163.707 642.304 163.107 641.824C162.627 641.344 162.087 641.104 161.487 641.104H144.027C143.427 641.104 142.827 641.344 142.227 641.824C141.747 642.304 141.507 642.844 141.507 643.444V655.864C141.507 656.464 141.747 657.004 142.227 657.484C142.827 657.964 143.427 658.204 144.027 658.204H161.487C162.087 658.204 162.627 657.964 163.107 657.484C163.707 657.004 164.007 656.464 164.007 655.864ZM265.051 659.284C265.051 664.924 263.071 669.724 259.111 673.684C255.271 677.524 250.591 679.444 245.071 679.444H223.831C223.231 679.444 222.631 679.684 222.031 680.164C221.551 680.644 221.311 681.184 221.311 681.784V699.964C221.311 702.244 220.531 704.164 218.971 705.724C217.411 707.404 215.491 708.244 213.211 708.244H208.171C205.891 708.244 203.911 707.404 202.231 705.724C200.671 704.164 199.891 702.244 199.891 699.964V606.364C199.891 602.644 200.791 599.284 202.591 596.284C204.511 593.164 206.971 590.704 209.971 588.904C212.971 587.104 216.331 586.204 220.051 586.204H245.071C248.791 586.204 252.151 587.104 255.151 588.904C258.151 590.704 260.551 593.164 262.351 596.284C264.151 599.284 265.051 602.644 265.051 606.364V659.284ZM243.811 655.864V610.144C243.811 609.424 243.511 608.824 242.911 608.344C242.431 607.864 241.891 607.624 241.291 607.624H223.831C223.231 607.624 222.631 607.864 222.031 608.344C221.551 608.824 221.311 609.424 221.311 610.144V655.864C221.311 656.464 221.551 657.004 222.031 657.484C222.631 657.964 223.231 658.204 223.831 658.204H241.291C241.891 658.204 242.431 657.964 242.911 657.484C243.511 657.004 243.811 656.464 243.811 655.864ZM344.856 625.984C344.856 629.584 343.956 632.944 342.156 636.064C340.356 639.064 337.956 641.524 334.956 643.444C331.956 645.244 328.596 646.144 324.876 646.144H303.636C303.036 646.144 302.436 646.384 301.836 646.864C301.356 647.224 301.116 647.704 301.116 648.304V655.864C301.116 656.464 301.356 657.004 301.836 657.484C302.436 657.964 303.036 658.204 303.636 658.204H324.876C327.156 658.204 329.076 658.984 330.636 660.544C332.316 662.104 333.156 664.084 333.156 666.484V671.164C333.156 673.444 332.316 675.424 330.636 677.104C329.076 678.664 327.156 679.444 324.876 679.444H299.856C294.336 679.444 289.596 677.524 285.636 673.684C281.676 669.724 279.696 664.924 279.696 659.284V606.364C279.696 602.644 280.596 599.284 282.396 596.284C284.316 593.284 286.776 590.884 289.776 589.084C292.776 587.164 296.136 586.204 299.856 586.204H324.876C328.596 586.204 331.956 587.164 334.956 589.084C337.956 590.884 340.356 593.284 342.156 596.284C343.956 599.284 344.856 602.644 344.856 606.364V625.984ZM323.616 622.384V610.144C323.616 609.424 323.316 608.824 322.716 608.344C322.236 607.864 321.696 607.624 321.096 607.624H303.636C303.036 607.624 302.436 607.864 301.836 608.344C301.356 608.824 301.116 609.424 301.116 610.144V622.384C301.116 622.864 301.356 623.344 301.836 623.824C302.436 624.304 303.036 624.544 303.636 624.544H321.096C321.696 624.544 322.236 624.304 322.716 623.824C323.316 623.344 323.616 622.864 323.616 622.384ZM430.816 570.904C430.816 573.184 430.036 575.164 428.476 576.844C426.916 578.404 424.936 579.184 422.536 579.184H403.636C402.076 579.184 401.296 579.964 401.296 581.524V671.164C401.296 673.444 400.456 675.424 398.776 677.104C397.216 678.664 395.296 679.444 393.016 679.444H388.336C386.056 679.444 384.076 678.664 382.396 677.104C380.836 675.424 380.056 673.444 380.056 671.164V581.524C380.056 579.964 379.276 579.184 377.716 579.184H358.636C356.356 579.184 354.376 578.404 352.696 576.844C351.136 575.164 350.356 573.184 350.356 570.904V566.044C350.356 563.644 351.136 561.664 352.696 560.104C354.376 558.544 356.356 557.764 358.636 557.764H422.536C424.936 557.764 426.916 558.544 428.476 560.104C430.036 561.664 430.816 563.644 430.816 566.044V570.904ZM496.028 659.284C496.028 664.924 494.048 669.724 490.088 673.684C486.248 677.524 481.568 679.444 476.048 679.444H451.028C445.508 679.444 440.768 677.524 436.808 673.684C432.848 669.724 430.868 664.924 430.868 659.284V639.664C430.868 635.944 431.768 632.644 433.568 629.764C435.488 626.764 437.948 624.364 440.948 622.564C443.948 620.764 447.308 619.864 451.028 619.864H472.268C472.868 619.864 473.408 619.624 473.888 619.144C474.488 618.664 474.788 618.064 474.788 617.344V610.144C474.788 609.424 474.488 608.824 473.888 608.344C473.408 607.864 472.868 607.624 472.268 607.624H451.028C448.748 607.624 446.768 606.844 445.088 605.284C443.528 603.724 442.748 601.804 442.748 599.524V594.664C442.748 592.264 443.528 590.284 445.088 588.724C446.768 587.044 448.748 586.204 451.028 586.204H476.048C479.768 586.204 483.128 587.104 486.128 588.904C489.128 590.704 491.528 593.164 493.328 596.284C495.128 599.284 496.028 602.644 496.028 606.364V659.284ZM474.788 655.864V643.444C474.788 642.844 474.488 642.304 473.888 641.824C473.408 641.344 472.868 641.104 472.268 641.104H454.808C454.208 641.104 453.608 641.344 453.008 641.824C452.528 642.304 452.288 642.844 452.288 643.444V655.864C452.288 656.464 452.528 657.004 453.008 657.484C453.608 657.964 454.208 658.204 454.808 658.204H472.268C472.868 658.204 473.408 657.964 473.888 657.484C474.488 657.004 474.788 656.464 474.788 655.864ZM543.433 671.164C543.433 673.444 542.593 675.424 540.913 677.104C539.353 678.664 537.433 679.444 535.153 679.444H530.653C525.133 679.444 520.393 677.524 516.433 673.684C512.473 669.724 510.493 664.924 510.493 659.284V566.044C510.493 563.644 511.273 561.664 512.833 560.104C514.513 558.544 516.493 557.764 518.773 557.764H523.813C526.093 557.764 528.013 558.544 529.573 560.104C531.253 561.664 532.093 563.644 532.093 566.044V655.864C532.093 657.424 532.813 658.204 534.253 658.204H535.153C537.433 658.204 539.353 658.984 540.913 660.544C542.593 662.104 543.433 664.084 543.433 666.484V671.164ZM622.046 674.404C620.726 677.764 618.266 679.444 614.666 679.444H608.006C605.606 679.444 603.506 678.544 601.706 676.744L580.646 653.524C580.526 653.284 580.226 653.224 579.746 653.344C579.386 653.464 579.206 653.764 579.206 654.244V671.164C579.206 673.444 578.366 675.424 576.686 677.104C575.126 678.664 573.206 679.444 570.926 679.444H565.886C563.606 679.444 561.626 678.664 559.946 677.104C558.386 675.424 557.606 673.444 557.606 671.164V566.044C557.606 563.644 558.386 561.664 559.946 560.104C561.626 558.544 563.606 557.764 565.886 557.764H570.926C573.206 557.764 575.126 558.544 576.686 560.104C578.366 561.664 579.206 563.644 579.206 566.044V611.584C579.206 611.944 579.386 612.244 579.746 612.484C580.226 612.604 580.526 612.484 580.646 612.124L599.726 591.424C601.286 589.624 603.266 588.724 605.666 588.724H612.326C615.806 588.724 618.326 590.404 619.886 593.764C620.486 595.204 620.666 596.764 620.426 598.444C620.186 600.004 619.526 601.324 618.446 602.404L592.346 631.204C591.866 631.684 591.626 632.284 591.626 633.004C591.626 633.604 591.866 634.084 592.346 634.444L620.606 665.584C621.686 666.784 622.346 668.224 622.586 669.904C622.946 671.464 622.766 672.964 622.046 674.404Z" fill="url(#paint0_linear_1_49)"/>
<path d="M322.223 458.893H385.844C393.718 458.893 406.009 454.883 406.009 439.625C406.009 417.838 406.009 417.838 406.009 55.5259C406.009 55.5259 376.423 61.5628 341.903 55.5259V133.935H252.333C244.459 133.935 238.076 140.318 238.076 148.193V364.382" stroke="url(#paint1_linear_1_49)" stroke-width="15" stroke-miterlimit="10" stroke-linecap="round" stroke-linejoin="round"/>
<path d="M352.121 55.4305C360.429 51.5135 362.285 41.9527 362.285 31.313V8H386.215V31.5076C386.215 42.0493 387.881 51.5435 396.079 55.5259" stroke="url(#paint2_linear_1_49)" stroke-width="15" stroke-miterlimit="10" stroke-linecap="round" stroke-linejoin="round"/>
<path d="M341.902 132.921C341.902 132.921 367.551 143.022 406.008 132.921" stroke="url(#paint3_linear_1_49)" stroke-width="15" stroke-miterlimit="10" stroke-linecap="round" stroke-linejoin="round"/>
<path d="M331.627 236.473L311.172 280.722H334.937L315.509 327.645" stroke="url(#paint4_linear_1_49)" stroke-width="15" stroke-miterlimit="10" stroke-linecap="round" stroke-linejoin="round"/>
<path d="M13.4306 472.165C-4.74283 419.161 23.4929 361.46 76.4967 343.286C98.3285 335.8 120.957 336.188 141.292 342.937" stroke="url(#paint5_linear_1_49)" stroke-width="15" stroke-miterlimit="10" stroke-linecap="round" stroke-linejoin="round"/>
<path d="M101.51 277.656C73.0903 267.77 52.6926 240.745 52.6926 208.956C52.6926 168.795 85.249 136.238 125.411 136.238C134.165 136.238 142.558 137.784 150.33 140.62" stroke="url(#paint6_linear_1_49)" stroke-width="15" stroke-miterlimit="10" stroke-linecap="round" stroke-linejoin="round"/>
<path d="M173.508 99.2705C182.209 68.8549 210.219 46.592 243.43 46.592C264.799 46.592 284.016 55.8093 297.32 70.4862" stroke="url(#paint7_linear_1_49)" stroke-width="15" stroke-miterlimit="10" stroke-linecap="round" stroke-linejoin="round"/>
<path d="M130.763 135.85C126.699 119.599 136.578 103.13 152.829 99.0655C162.834 96.563 172.922 99.3463 180.147 105.647" stroke="url(#paint8_linear_1_49)" stroke-width="15" stroke-miterlimit="10" stroke-linecap="round" stroke-linejoin="round"/>
<path d="M43.7261 315.184C38.7902 309.312 35.8044 301.742 35.7744 293.47C35.7052 274.713 50.8549 259.451 69.6121 259.382" stroke="url(#paint9_linear_1_49)" stroke-width="15" stroke-miterlimit="10" stroke-linecap="round" stroke-linejoin="round"/>
<path d="M171.484 421C188.747 398.134 219.67 388.447 247.733 399.269C281.67 412.355 298.573 450.474 285.487 484.409" stroke="url(#paint10_linear_1_49)" stroke-width="15" stroke-miterlimit="10" stroke-linecap="round" stroke-linejoin="round"/>
<path d="M120.491 434.304C126.602 418.454 144.407 410.559 160.257 416.671C170.015 420.434 176.758 428.629 179.074 438.071" stroke="url(#paint11_linear_1_49)" stroke-width="15" stroke-miterlimit="10" stroke-linecap="round" stroke-linejoin="round"/>
<path d="M634.821 453.911C644.118 432.121 638.341 405.959 619.032 390.284C595.683 371.329 561.389 374.891 542.434 398.239" stroke="url(#paint12_linear_1_49)" stroke-width="15" stroke-miterlimit="10" stroke-linecap="round" stroke-linejoin="round"/>
<path d="M604.297 349.837C622.694 334.047 624.806 306.334 609.016 287.939C599.147 276.441 584.621 271.304 570.622 272.923" stroke="url(#paint13_linear_1_49)" stroke-width="15" stroke-miterlimit="10" stroke-linecap="round" stroke-linejoin="round"/>
<path d="M591.343 273.682C609.955 226.121 586.488 172.476 538.927 153.864C509.201 142.232 477.099 147.035 452.659 163.887" stroke="url(#paint14_linear_1_49)" stroke-width="15" stroke-miterlimit="10" stroke-linecap="round" stroke-linejoin="round"/>
<defs>
<linearGradient id="paint0_linear_1_49" x1="4" y1="718.222" x2="644" y2="718.222" gradientUnits="userSpaceOnUse">
<stop stop-color="#FF3CAC"/>
<stop offset="0.489583" stop-color="#562B7C"/>
<stop offset="1" stop-color="#2B86C5"/>
</linearGradient>
<linearGradient id="paint1_linear_1_49" x1="322.042" y1="55.5259" x2="322.042" y2="458.893" gradientUnits="userSpaceOnUse">
<stop stop-color="#FF3CAC"/>
<stop offset="0.510417" stop-color="#562B7C"/>
<stop offset="1" stop-color="#2B86C5"/>
</linearGradient>
<linearGradient id="paint2_linear_1_49" x1="374.1" y1="8" x2="374.1" y2="55.5259" gradientUnits="userSpaceOnUse">
<stop stop-color="#FF3CAC"/>
<stop offset="0.510417" stop-color="#562B7C"/>
<stop offset="1" stop-color="#2B86C5"/>
</linearGradient>
<linearGradient id="paint3_linear_1_49" x1="373.955" y1="132.921" x2="373.955" y2="137.41" gradientUnits="userSpaceOnUse">
<stop stop-color="#FF3CAC"/>
<stop offset="0.510417" stop-color="#562B7C"/>
<stop offset="1" stop-color="#2B86C5"/>
</linearGradient>
<linearGradient id="paint4_linear_1_49" x1="323.054" y1="236.473" x2="323.054" y2="327.645" gradientUnits="userSpaceOnUse">
<stop stop-color="#FF3CAC"/>
<stop offset="0.510417" stop-color="#562B7C"/>
<stop offset="1" stop-color="#2B86C5"/>
</linearGradient>
<linearGradient id="paint5_linear_1_49" x1="74.6053" y1="337.773" x2="74.6053" y2="472.165" gradientUnits="userSpaceOnUse">
<stop stop-color="#FF3CAC"/>
<stop offset="0.510417" stop-color="#562B7C"/>
<stop offset="1" stop-color="#2B86C5"/>
</linearGradient>
<linearGradient id="paint6_linear_1_49" x1="101.512" y1="136.238" x2="101.512" y2="277.656" gradientUnits="userSpaceOnUse">
<stop stop-color="#FF3CAC"/>
<stop offset="0.510417" stop-color="#562B7C"/>
<stop offset="1" stop-color="#2B86C5"/>
</linearGradient>
<linearGradient id="paint7_linear_1_49" x1="235.414" y1="46.592" x2="235.414" y2="99.2705" gradientUnits="userSpaceOnUse">
<stop stop-color="#FF3CAC"/>
<stop offset="0.510417" stop-color="#562B7C"/>
<stop offset="1" stop-color="#2B86C5"/>
</linearGradient>
<linearGradient id="paint8_linear_1_49" x1="154.998" y1="98.1519" x2="154.998" y2="135.85" gradientUnits="userSpaceOnUse">
<stop stop-color="#FF3CAC"/>
<stop offset="0.510417" stop-color="#562B7C"/>
<stop offset="1" stop-color="#2B86C5"/>
</linearGradient>
<linearGradient id="paint9_linear_1_49" x1="52.6931" y1="259.382" x2="52.6931" y2="315.184" gradientUnits="userSpaceOnUse">
<stop stop-color="#FF3CAC"/>
<stop offset="0.510417" stop-color="#562B7C"/>
<stop offset="1" stop-color="#2B86C5"/>
</linearGradient>
<linearGradient id="paint10_linear_1_49" x1="230.699" y1="394.841" x2="230.699" y2="484.409" gradientUnits="userSpaceOnUse">
<stop stop-color="#FF3CAC"/>
<stop offset="0.510417" stop-color="#562B7C"/>
<stop offset="1" stop-color="#2B86C5"/>
</linearGradient>
<linearGradient id="paint11_linear_1_49" x1="149.782" y1="414.603" x2="149.782" y2="438.071" gradientUnits="userSpaceOnUse">
<stop stop-color="#FF3CAC"/>
<stop offset="0.510417" stop-color="#562B7C"/>
<stop offset="1" stop-color="#2B86C5"/>
</linearGradient>
<linearGradient id="paint12_linear_1_49" x1="590.801" y1="378.105" x2="590.801" y2="453.911" gradientUnits="userSpaceOnUse">
<stop stop-color="#FF3CAC"/>
<stop offset="0.510417" stop-color="#562B7C"/>
<stop offset="1" stop-color="#2B86C5"/>
</linearGradient>
<linearGradient id="paint13_linear_1_49" x1="595.113" y1="272.632" x2="595.113" y2="349.837" gradientUnits="userSpaceOnUse">
<stop stop-color="#FF3CAC"/>
<stop offset="0.510417" stop-color="#562B7C"/>
<stop offset="1" stop-color="#2B86C5"/>
</linearGradient>
<linearGradient id="paint14_linear_1_49" x1="525.193" y1="147.48" x2="525.193" y2="273.682" gradientUnits="userSpaceOnUse">
<stop stop-color="#FF3CAC"/>
<stop offset="0.510417" stop-color="#562B7C"/>
<stop offset="1" stop-color="#2B86C5"/>
</linearGradient>
</defs>
</svg>
