<svg width="44" height="56" viewBox="0 0 44 56" fill="none" xmlns="http://www.w3.org/2000/svg">
<path d="M23.9529 36.6516C23.9529 36.7466 23.9461 36.8416 23.9394 36.9366C23.9326 37.1606 23.9326 36.8416 23.9529 36.8484C23.9733 36.8552 23.8511 37.2624 23.8443 37.2895C23.8511 37.2759 23.7901 37.4592 23.7833 37.4592C23.7833 37.4592 23.9326 37.1741 23.7968 37.4185C23.7154 37.561 23.634 37.6967 23.5457 37.8392C23.3964 38.0835 23.7086 37.6967 23.5661 37.8053C23.5118 37.846 23.4643 37.9207 23.4168 37.9682C23.3761 38.0089 23.3354 38.0496 23.2878 38.0903C23.2675 38.1107 23.2471 38.131 23.22 38.1514C23.1114 38.2464 23.1318 38.2261 23.2878 38.1039C23.2946 38.1514 22.996 38.3007 22.9553 38.3211C22.8874 38.355 22.8264 38.3889 22.7585 38.4229C22.5278 38.545 23.03 38.3482 22.7517 38.4229C22.6092 38.4636 22.4599 38.5043 22.3174 38.545C22.107 38.5993 22.4124 38.5315 22.4056 38.5382C22.392 38.5654 22.2088 38.5518 22.1748 38.5586C22.0323 38.5654 21.8898 38.5518 21.7541 38.5518C21.4351 38.5382 22.0527 38.6333 21.7473 38.545C21.6591 38.5179 21.5708 38.5043 21.4826 38.4772C21.4283 38.4636 21.3672 38.4364 21.313 38.4229C21.0347 38.3414 21.503 38.5382 21.3469 38.4432C21.2383 38.3686 21.1094 38.3211 20.994 38.2532C20.9736 38.2396 20.77 38.1243 20.7768 38.1039C20.7768 38.0903 21.0347 38.3346 20.8447 38.1514C20.8108 38.1175 20.4579 37.8053 20.4782 37.7714C20.485 37.7646 20.6682 38.0564 20.5325 37.8324C20.4918 37.7714 20.4511 37.7103 20.4103 37.6492C20.39 37.6153 20.2 37.3234 20.2271 37.2963C20.2271 37.2963 20.3221 37.6017 20.2475 37.3302C20.2271 37.2556 20.2 37.1877 20.1796 37.1131C20.166 37.052 20.1525 36.9909 20.1389 36.9366C20.0642 36.6719 20.1592 37.242 20.1321 36.8823C20.1253 36.7398 20.1185 36.5973 20.1321 36.4616C20.1321 36.4276 20.1389 36.4005 20.1389 36.3665C20.1525 36.2172 20.1525 36.2444 20.1253 36.4548C20.1185 36.4548 20.166 36.2647 20.1592 36.2783C20.166 36.2444 20.261 35.844 20.2882 35.844C20.295 35.844 20.1321 36.1562 20.2543 35.9254C20.295 35.844 20.3357 35.7693 20.3764 35.6879C20.4239 35.6132 20.4714 35.5386 20.5189 35.4639C20.6343 35.2875 20.4782 35.5386 20.4646 35.525C20.4511 35.4979 20.7429 35.2264 20.77 35.206C20.7632 35.2128 20.899 35.0839 20.9058 35.0907C20.8583 35.1246 20.8175 35.1585 20.77 35.1925C20.8175 35.1585 20.865 35.1246 20.9126 35.0907C21.0347 35.0092 21.1704 34.9414 21.2994 34.8735C21.5505 34.7378 21.089 34.9142 21.2655 34.8871C21.3333 34.8735 21.408 34.8396 21.4826 34.8192C21.5437 34.8056 21.598 34.7853 21.6591 34.7717C21.6862 34.7649 21.7202 34.7581 21.7473 34.7513C21.8966 34.7242 21.8695 34.7242 21.6591 34.7581C21.6862 34.7106 22.0255 34.7378 22.0798 34.7378C22.1613 34.7378 22.2359 34.7446 22.3174 34.7513C22.6228 34.7649 22.0255 34.6767 22.3242 34.7581C22.3784 34.7717 22.8467 34.8667 22.8467 34.9074C22.8467 34.9142 22.5345 34.7513 22.7653 34.8735C22.8467 34.9142 22.9214 34.9549 23.0028 34.9957C23.0639 35.0296 23.125 35.0771 23.1928 35.111C23.4779 35.2875 23.0503 34.9617 23.2336 35.1382C23.3354 35.24 23.4439 35.3418 23.5457 35.4504C23.7561 35.6675 23.3896 35.1992 23.5525 35.4504C23.6 35.525 23.6475 35.5997 23.695 35.6743C23.7222 35.7286 23.7561 35.7761 23.7833 35.8304C23.9326 36.129 23.8172 35.8304 23.7901 35.8304C23.8376 35.8304 23.9258 36.2987 23.9394 36.353C24.0072 36.6176 23.919 36.258 23.9326 36.2647C23.9665 36.2987 23.9529 36.6109 23.9529 36.6516C23.9597 37.3642 24.5705 38.0428 25.3102 38.0089C26.0364 37.975 26.6811 37.4117 26.6676 36.6516C26.6404 34.6699 25.3985 32.9393 23.5322 32.2742C21.7812 31.6499 19.6774 32.2335 18.5101 33.6791C17.2817 35.1993 17.0442 37.371 18.0961 39.0608C19.148 40.7507 21.1161 41.5515 23.0503 41.1646C25.1609 40.7439 26.6404 38.7554 26.6676 36.6516C26.6743 35.939 26.0364 35.2603 25.3102 35.2943C24.5637 35.3282 23.9665 35.8915 23.9529 36.6516Z" fill="black"/>
<path d="M23.3556 47.1164C23.3556 45.0193 23.3556 42.9223 23.3556 40.8252C23.3556 40.5266 23.3556 40.2212 23.3556 39.9226C23.3556 39.21 22.7313 38.5314 21.9983 38.5653C21.2654 38.5992 20.641 39.1625 20.641 39.9226C20.641 42.0197 20.641 44.1167 20.641 46.2138C20.641 46.5124 20.641 46.8178 20.641 47.1164C20.641 47.829 21.2654 48.5076 21.9983 48.4737C22.7313 48.4398 23.3556 47.8765 23.3556 47.1164Z" fill="black"/>
<path d="M41.2043 49.4238C41.2043 49.5527 41.1975 49.6749 41.1907 49.8038C41.1839 49.8649 41.1771 49.926 41.1771 49.9871C41.1568 50.2314 41.1771 49.926 41.1907 49.8988C41.1432 49.9938 41.1432 50.1499 41.1228 50.2585C41.0889 50.4078 41.0482 50.5503 41.0007 50.6929C40.9803 50.7607 40.9328 51.005 40.8785 51.0322C40.9057 51.0186 41.0007 50.7743 40.9057 50.9507C40.8785 51.005 40.8514 51.0593 40.8242 51.1136C40.7021 51.3512 40.5595 51.5751 40.4102 51.7923C40.2949 51.9619 40.4645 51.738 40.4645 51.7312C40.4645 51.738 40.3492 51.8737 40.3492 51.8669C40.2745 51.9552 40.1931 52.0434 40.1116 52.1248C40.0302 52.2063 39.942 52.2877 39.8537 52.3691C39.813 52.4099 39.7655 52.4438 39.718 52.4845C39.5348 52.6474 39.8877 52.3759 39.7519 52.4642C39.5551 52.5931 39.3651 52.7288 39.1547 52.8442C39.1344 52.8578 38.8154 53.041 38.795 53.0207C38.795 53.0207 39.1208 52.8985 38.8697 52.9867C38.8018 53.0139 38.7272 53.041 38.6593 53.0614C38.4286 53.136 38.1978 53.2039 37.9535 53.2446C37.6142 53.3125 38.2046 53.2242 37.8585 53.2582C37.716 53.2718 37.5802 53.2785 37.4377 53.2853C37.3902 53.2853 37.3427 53.2853 37.2952 53.2853C37.1595 53.2853 37.017 53.2853 36.8812 53.2853C35.1914 53.2853 33.5015 53.2853 31.8117 53.2853C29.0156 53.2853 26.2263 53.2853 23.4302 53.2853C20.4849 53.2853 17.5395 53.2853 14.5941 53.2853C12.4496 53.2853 10.2982 53.2853 8.15368 53.2853C7.67862 53.2853 7.20356 53.2853 6.72851 53.2853C6.68779 53.2853 6.65385 53.2853 6.61313 53.2853C6.60635 53.2853 6.60635 53.2853 6.59956 53.2853C6.49098 53.2853 6.38239 53.2785 6.26702 53.2718C6.20594 53.265 6.14486 53.265 6.08378 53.2582C5.85982 53.2378 6.01592 53.2107 6.1245 53.265C5.92769 53.17 5.62908 53.1632 5.41191 53.1021C5.29654 53.0682 5.18795 53.0274 5.07258 52.9867C4.82827 52.8985 5.15402 53.0207 5.14724 53.0207C5.14045 53.0274 4.91649 52.9121 4.90292 52.9053C4.69254 52.7967 4.48894 52.6745 4.29891 52.5388C4.3057 52.5388 4.1564 52.4506 4.1564 52.437C4.1564 52.4574 4.37357 52.6202 4.22426 52.4845C4.11568 52.3895 4.00031 52.2945 3.89851 52.1859C3.81707 52.1045 3.73563 52.0162 3.65419 51.928C3.61347 51.8873 3.57954 51.8398 3.53882 51.7923C3.40309 51.643 3.57275 51.8601 3.58632 51.8601C3.48453 51.8601 3.22664 51.3172 3.17913 51.229C3.12484 51.1272 3.07733 51.0118 3.01625 50.91C2.92124 50.7404 3.13162 51.229 3.02983 50.944C3.00947 50.8897 2.98911 50.8286 2.96875 50.7743C2.88731 50.53 2.81944 50.2789 2.77194 50.0278C2.70407 49.6884 2.7923 50.2789 2.75836 49.9328C2.74479 49.8106 2.738 49.6817 2.738 49.5595C2.738 49.5052 2.738 49.4577 2.738 49.4034C2.738 49.3627 2.738 49.3152 2.738 49.2745C2.738 48.6908 2.738 48.114 2.738 47.5303C2.738 45.0329 2.738 42.5286 2.738 40.0312C2.738 37.1061 2.738 34.1811 2.738 31.2561C2.738 29.4577 2.738 27.6525 2.738 25.854C2.738 25.7387 2.738 25.6165 2.738 25.5011C2.738 25.379 2.74479 25.25 2.75836 25.1279C2.75836 25.1211 2.76515 24.9582 2.77872 24.9446C2.73122 24.9989 2.73122 25.2229 2.77194 25.0328C2.82623 24.7682 2.88731 24.5035 2.98232 24.2456C3.00268 24.1913 3.02304 24.1302 3.0434 24.0759C3.13162 23.8316 3.00947 24.1574 3.00947 24.1506C2.98911 24.1302 3.15198 23.8588 3.16556 23.8316C3.21306 23.7434 3.4981 23.1598 3.59311 23.1598C3.59311 23.1598 3.37594 23.4176 3.54561 23.2276C3.58632 23.1869 3.62026 23.1394 3.66098 23.0919C3.74242 23.0037 3.81707 22.9222 3.90529 22.834C3.98673 22.7526 4.07496 22.6711 4.16318 22.5965C4.18354 22.5829 4.29213 22.4811 4.29891 22.4811C4.27855 22.4743 4.03424 22.6643 4.27177 22.5082C4.46858 22.3725 4.66539 22.2504 4.87577 22.135C4.94364 22.1011 5.0115 22.0671 5.07258 22.0332C5.24903 21.9382 5.00472 22.0332 4.99114 22.0603C5.01829 22.006 5.31011 21.9382 5.37119 21.9246C5.60193 21.8499 5.83946 21.8024 6.07699 21.7549C6.26023 21.7142 5.80553 21.7821 5.98877 21.7617C6.04985 21.7549 6.11093 21.7482 6.17201 21.7414C6.31452 21.7278 6.45704 21.7278 6.59277 21.721C6.61313 21.721 6.63349 21.721 6.64707 21.721C7.92973 21.7142 9.2056 21.721 10.4883 21.721C13.1011 21.721 15.7207 21.721 18.3335 21.721C21.3196 21.721 24.3057 21.721 27.2918 21.721C29.7282 21.721 32.1646 21.721 34.6077 21.721C35.3067 21.721 36.0125 21.721 36.7116 21.721C36.8812 21.721 37.0577 21.721 37.2273 21.721C37.2613 21.721 37.2952 21.721 37.3359 21.721C37.3563 21.721 37.3766 21.721 37.397 21.721C37.526 21.721 37.6481 21.7278 37.7703 21.7346C37.8313 21.7414 37.8924 21.7481 37.9535 21.7549C38.13 21.7685 37.6617 21.7006 37.9128 21.7549C38.1503 21.8024 38.3878 21.8567 38.6186 21.9314C38.6729 21.9517 38.9308 22.006 38.9579 22.0535C38.9443 22.0264 38.7 21.9314 38.8765 22.0264C38.9579 22.0671 39.0394 22.1011 39.114 22.1486C39.3244 22.2571 39.5212 22.3929 39.718 22.5218C39.9352 22.6643 39.6501 22.4743 39.6569 22.4675C39.6637 22.4675 39.7723 22.5625 39.7927 22.5829C39.9013 22.6779 40.0098 22.7797 40.1116 22.8815C40.1931 22.9629 40.2745 23.0512 40.3492 23.1394C40.3627 23.1598 40.4645 23.2683 40.4645 23.2751C40.4645 23.2751 40.2677 22.9969 40.4102 23.214C40.5528 23.4244 40.6885 23.628 40.8039 23.852C40.831 23.9063 40.8582 23.9606 40.8853 24.0081C40.9192 24.0759 41.021 24.1845 40.9057 24.0488C40.7835 23.9063 40.9124 24.0692 40.9396 24.137C40.96 24.1913 40.9803 24.2524 41.0007 24.3067C41.0821 24.551 41.1296 24.8021 41.1839 25.06C41.2246 25.2432 41.1568 24.7885 41.1771 24.9718C41.1839 25.0328 41.1907 25.0939 41.1975 25.155C41.2043 25.2772 41.2111 25.4061 41.2111 25.5283C41.2111 25.5486 41.2111 25.569 41.2111 25.5893C41.2111 25.6369 41.2111 25.6844 41.2111 25.7319C41.2111 25.949 41.2111 26.173 41.2111 26.3902C41.2111 28.5347 41.2111 30.6793 41.2111 32.8238C41.2111 35.7963 41.2111 38.7689 41.2111 41.7482C41.2111 43.9674 41.2111 46.1866 41.2111 48.4058C41.2043 48.7587 41.2043 49.0912 41.2043 49.4238C41.2043 50.1364 41.8286 50.815 42.5616 50.7811C43.2945 50.7472 43.9189 50.1839 43.9189 49.4238C43.9189 48.0936 43.9189 46.7634 43.9189 45.4333C43.9189 42.5558 43.9189 39.6783 43.9189 36.8008C43.9189 34.059 43.9189 31.3172 43.9189 28.5754C43.9189 27.7678 43.9189 26.9602 43.9189 26.1526C43.9189 25.2636 43.8782 24.3678 43.5796 23.5127C42.7312 21.0831 40.6274 19.3932 38.0824 19.0675C37.6074 19.0064 37.1391 19.0132 36.6573 19.0132C34.7978 19.0132 32.945 19.0132 31.0855 19.0132C28.1808 19.0132 25.2694 19.0132 22.3648 19.0132C19.4262 19.0132 16.4808 19.0132 13.5422 19.0132C11.5538 19.0132 9.5585 19.0132 7.57004 19.0132C7.24428 19.0132 6.91174 19.0132 6.58599 19.0132C4.28534 19.0335 2.12043 20.2415 0.932777 22.2232C0.260907 23.3498 0.00301625 24.6121 0.00301625 25.9015C0.00301625 26.6073 0.00301625 27.3063 0.00301625 28.0122C0.00301625 30.6589 0.00301625 33.3057 0.00301625 35.9524C0.00301625 38.8842 0.00301625 41.8228 0.00301625 44.7546C0.00301625 46.2952 -0.00377032 47.8357 0.00301625 49.3763C0.00980282 51.324 0.864911 53.2514 2.39189 54.4798C3.64062 55.4842 5.12009 56 6.72172 56C8.17404 56 9.62637 56 11.0855 56C13.8205 56 16.5555 56 19.2904 56C22.3105 56 25.3373 56 28.3573 56C30.6783 56 32.9993 56 35.3203 56C35.8972 56 36.4808 56 37.0577 56C38.2793 56 39.4669 55.7624 40.546 55.1584C42.6159 54.0115 43.885 51.7719 43.9053 49.417C43.9121 48.7044 43.2742 48.0257 42.548 48.0597C41.8218 48.1004 41.2111 48.6637 41.2043 49.4238Z" fill="black"/>
<path d="M34.0784 6.18659C34.0784 7.78143 34.0784 9.38306 34.0784 10.9779C34.0784 13.5229 34.0784 16.0746 34.0784 18.6196C34.0784 19.2032 34.0784 19.7869 34.0784 20.3773C34.5331 19.9226 34.981 19.4747 35.4357 19.02C34.5398 19.02 33.644 19.02 32.7482 19.02C30.6104 19.02 28.4727 19.02 26.3349 19.02C23.7356 19.02 21.1364 19.02 18.5371 19.02C16.2976 19.02 14.058 19.02 11.8252 19.02C10.7326 19.02 9.63314 18.9725 8.54051 19.02C8.52693 19.02 8.50657 19.02 8.493 19.02C8.9477 19.4747 9.39561 19.9226 9.85031 20.3773C9.85031 17.812 9.85031 15.2399 9.85031 12.6745C9.85031 11.039 9.85031 9.39664 9.85031 7.76108C9.85031 7.31316 9.85031 6.86525 9.85031 6.41733C9.85031 6.34268 9.85031 6.26803 9.85031 6.19338C9.85031 6.12551 9.85031 6.06443 9.8571 5.99657C9.86389 5.90156 9.87067 5.80654 9.87746 5.71153C9.89782 5.44007 9.87067 5.79976 9.86389 5.79297C9.82317 5.76582 10.0539 4.86321 10.1353 4.82928C10.0539 4.87 10.0132 5.08038 10.1286 4.86321C10.1625 4.79534 10.1964 4.72748 10.2304 4.65961C10.2982 4.53067 10.3797 4.40172 10.4611 4.27278C10.5018 4.2117 10.5493 4.15062 10.59 4.08954C10.6918 3.92666 10.3729 4.33386 10.5697 4.11669C10.6918 3.98096 10.8072 3.85201 10.9362 3.72307C11.0108 3.6552 11.1805 3.43803 11.2755 3.42446C11.2687 3.42446 11.004 3.61448 11.2144 3.47196C11.2891 3.42446 11.3637 3.37017 11.4384 3.32266C11.5673 3.24122 11.6963 3.16657 11.832 3.0987C11.8863 3.07156 11.9406 3.04441 11.9949 3.01726C12.2392 2.89511 11.7234 3.11906 12.0492 2.9969C12.3342 2.88832 12.6328 2.80688 12.9382 2.75259C13.1757 2.71187 12.9789 2.67115 12.9043 2.75259C12.9314 2.72544 13.0943 2.73223 13.1418 2.73223C13.2504 2.72544 13.3658 2.71866 13.4743 2.71866C13.5354 2.71866 13.5965 2.71866 13.6508 2.71866C14.6756 2.71866 15.7003 2.71866 16.7319 2.71866C20.2405 2.71866 23.7492 2.71866 27.2579 2.71866C28.3098 2.71866 29.3617 2.71866 30.4136 2.71866C30.4815 2.71866 30.5493 2.71866 30.6172 2.71866C30.7801 2.71866 30.9362 2.73223 31.0991 2.73902C31.4248 2.75937 30.7869 2.67794 31.1058 2.73902C31.1669 2.75259 31.228 2.75937 31.2891 2.77295C31.4655 2.81367 31.642 2.86117 31.8116 2.91547C31.8388 2.92225 32.0627 2.99012 32.0627 3.01048C32.0627 3.01726 31.7506 2.86117 31.9813 2.97655C32.117 3.04441 32.246 3.10549 32.3749 3.18014C32.5039 3.25479 32.6193 3.33623 32.7482 3.41767C32.9925 3.58055 32.5853 3.26158 32.721 3.39053C32.7957 3.46518 32.8771 3.51947 32.9518 3.59412C33.0604 3.69592 33.1622 3.79772 33.2572 3.9063C33.2979 3.94702 33.3318 3.99453 33.3726 4.04204C33.5762 4.27278 33.2029 3.79093 33.3726 4.04882C33.4336 4.13705 33.9223 4.80892 33.8544 4.89036C33.8476 4.89714 33.7322 4.5646 33.8205 4.8157C33.8476 4.88357 33.8748 4.95822 33.8951 5.02609C33.9426 5.16861 33.9833 5.31791 34.0173 5.46722C34.0309 5.54187 34.0444 5.61652 34.0648 5.69117C34.1259 5.99657 34.0444 5.44686 34.058 5.65045C34.0648 5.84048 34.0784 6.01014 34.0784 6.18659C34.0851 6.89918 34.6959 7.57784 35.4357 7.5439C36.1686 7.50997 36.7998 6.94669 36.793 6.18659C36.7794 4.60532 36.189 3.0987 35.1099 1.94499C34.0376 0.798056 32.5446 0.153333 30.9973 0.0311745C30.21 -0.0299046 29.4024 0.0176016 28.6152 0.0176016C25.0929 0.0176016 21.5775 0.0176016 18.0553 0.0176016C16.7319 0.0176016 15.4017 0.0176016 14.0783 0.0176016C13.8747 0.0176016 13.6711 0.0176016 13.4676 0.0176016C11.8863 0.0311747 10.4068 0.61482 9.21916 1.6328C8.01115 2.66436 7.32571 4.15062 7.16283 5.71153C7.1289 6.05086 7.13569 6.39019 7.13569 6.72952C7.13569 8.14791 7.13569 9.55951 7.13569 10.9779C7.13569 14.0522 7.13569 17.1198 7.13569 20.1941C7.13569 20.2551 7.13569 20.3162 7.13569 20.3773C7.13569 21.1103 7.76005 21.7346 8.493 21.7346C9.38883 21.7346 10.2847 21.7346 11.1805 21.7346C13.3182 21.7346 15.456 21.7346 17.5938 21.7346C20.193 21.7346 22.7923 21.7346 25.3916 21.7346C27.6311 21.7346 29.8707 21.7346 32.1035 21.7346C33.1961 21.7346 34.2955 21.7618 35.3882 21.7346C35.4017 21.7346 35.4221 21.7346 35.4357 21.7346C36.1686 21.7346 36.793 21.1103 36.793 20.3773C36.793 18.7825 36.793 17.1808 36.793 15.586C36.793 13.041 36.793 10.4893 36.793 7.94431C36.793 7.36067 36.793 6.77702 36.793 6.18659C36.793 5.474 36.1686 4.79534 35.4357 4.82928C34.7027 4.86321 34.0784 5.4265 34.0784 6.18659Z" fill="black"/>
</svg>
