<svg width="64" height="64" viewBox="0 0 64 64" fill="none" xmlns="http://www.w3.org/2000/svg">
<path d="M22.6643 43.3285C18.9728 43.3285 15.3643 42.2339 12.295 40.183C9.22564 38.1322 6.83339 35.2172 5.42074 31.8068C4.00809 28.3963 3.63847 24.6436 4.35864 21.0231C5.0788 17.4025 6.8564 14.0769 9.46664 11.4666C12.0769 8.8564 15.4025 7.0788 19.0231 6.35864C22.6436 5.63847 26.3963 6.00809 29.8068 7.42074C33.2172 8.83339 36.1322 11.2256 38.183 14.295C40.2339 17.3643 41.3285 20.9728 41.3285 24.6643C41.3285 29.6143 39.3621 34.3617 35.8619 37.8619C32.3617 41.3621 27.6143 43.3285 22.6643 43.3285ZM22.6643 9.73286C19.7111 9.73286 16.8243 10.6086 14.3688 12.2493C11.9134 13.8899 9.99957 16.2219 8.86945 18.9503C7.73932 21.6786 7.44363 24.6808 8.01976 27.5772C8.59589 30.4736 10.018 33.1342 12.1062 35.2224C14.1944 37.3106 16.8549 38.7326 19.7513 39.3088C22.6477 39.8849 25.6499 39.5892 28.3783 38.4591C31.1066 37.329 33.4386 35.4152 35.0793 32.9597C36.72 30.5043 37.5957 27.6174 37.5957 24.6643C37.5957 20.7042 36.0225 16.9063 33.2224 14.1062C30.4222 11.306 26.6243 9.73286 22.6643 9.73286Z" fill="#000"/>
<path d="M54.3935 57.7747C53.0765 57.7764 51.801 57.3138 50.7913 56.4682L39.3501 46.8747C38.7864 46.4017 38.3213 45.8222 37.9815 45.1695C37.6417 44.5167 37.4338 43.8034 37.3697 43.0703C37.2402 41.5897 37.7042 40.1183 38.6595 38.9798C39.6149 37.8412 40.9834 37.1289 42.464 36.9994C43.9446 36.8698 45.416 37.3338 46.5545 38.2892L57.9957 47.8826C58.8775 48.6211 59.5105 49.6131 59.8086 50.724C60.1068 51.8348 60.0556 53.0106 59.662 54.0913C59.2685 55.172 58.5516 56.1053 57.609 56.7644C56.6664 57.4234 55.5437 57.7761 54.3935 57.7747ZM42.9523 40.7155H42.7843C42.4141 40.7467 42.0616 40.8876 41.7719 41.1202C41.4822 41.3529 41.2686 41.6667 41.1583 42.0216C41.0481 42.3764 41.0462 42.756 41.153 43.1119C41.2598 43.4677 41.4704 43.7836 41.7578 44.0191L53.199 53.6125C53.3864 53.7708 53.6032 53.8905 53.837 53.9649C54.0707 54.0393 54.3168 54.0669 54.5612 54.0461C54.8057 54.0253 55.0436 53.9565 55.2614 53.8437C55.4792 53.7308 55.6727 53.5762 55.8307 53.3886C55.9882 53.2008 56.1071 52.9838 56.1808 52.75C56.2545 52.5162 56.2813 52.2702 56.2599 52.0261C56.2373 51.7806 56.1662 51.5421 56.0509 51.3243C55.9356 51.1064 55.7783 50.9136 55.588 50.7569L44.1468 41.1448C43.811 40.8666 43.3884 40.7147 42.9523 40.7155Z" fill="#000"/>
<path d="M39.4621 41.4621C39.026 41.463 38.6034 41.3111 38.2676 41.0328L33.8629 37.3933C33.4817 37.0765 33.242 36.6213 33.1965 36.1277C33.151 35.6342 33.3034 35.1428 33.6202 34.7617C33.937 34.3805 34.3923 34.1408 34.8858 34.0953C35.3793 34.0498 35.8707 34.2022 36.2519 34.519L40.6193 38.1585C40.8083 38.3152 40.9645 38.5077 41.079 38.7248C41.1935 38.942 41.2641 39.1796 41.2866 39.424C41.3092 39.6685 41.2833 39.915 41.2104 40.1494C41.1375 40.3839 41.0191 40.6016 40.8619 40.7902C40.6905 40.9961 40.4768 41.1627 40.2352 41.2786C39.9937 41.3946 39.73 41.4572 39.4621 41.4621Z" fill="#000"/>
</svg>
